<?xml version="1.0" encoding="utf-8"?>
<!-- Generator: Adobe Illustrator 18.0.0, SVG Export Plug-In . SVG Version: 6.00 Build 0)  -->
<!DOCTYPE svg PUBLIC "-//W3C//DTD SVG 1.1//EN" "http://www.w3.org/Graphics/SVG/1.1/DTD/svg11.dtd">
<svg version="1.1" id="Layer_1" xmlns="http://www.w3.org/2000/svg" xmlns:xlink="http://www.w3.org/1999/xlink" x="0px" y="0px"
	 viewBox="0 0 150 150" enable-background="new 0 0 150 150" xml:space="preserve">
<circle fill="#FFFFFF" cx="75" cy="75" r="75"/>
<g>
	<path fill="none" stroke="#8EC640" stroke-linecap="round" stroke-linejoin="round" stroke-miterlimit="10" d="M78,40.8
		c0-0.7-0.6-1.3-1.3-1.3l0,0c-1.1-0.3-2.2-0.3-3.3,0l0,0c-0.7,0-1.3,0.6-1.3,1.3l0,0c0,0.7,0.6,1.3,1.3,1.3h3.3
		C77.4,42.1,78,41.5,78,40.8L78,40.8z"/>
	<path fill="none" stroke="#8EC640" stroke-linecap="round" stroke-linejoin="round" stroke-miterlimit="10" d="M75,42.1l-15.1,1.7
		c-11.9,1.4-21.4,10.4-23.3,22.2l-4.5,27.5c-0.3,1.5,0.7,3,2.2,3.5l0,0"/>
	<path fill="none" stroke="#8EC640" stroke-linecap="round" stroke-linejoin="round" stroke-miterlimit="10" d="M115.8,97L115.8,97
		c1.5-0.5,2.4-2,2.2-3.5l-4.5-27.5c-1.9-11.8-11.4-20.9-23.3-22.2L75,42.1"/>
	<path fill="none" stroke="#8EC640" stroke-linecap="round" stroke-linejoin="round" stroke-miterlimit="10" d="M115.5,97.1l0.9,9.7
		c0.2,1.9-1.8,3.3-3.5,2.4l-9.1-4.4c-4.1-2-8.4-3.5-12.8-4.4l-4.3-0.9c-7.7-1.6-15.6-1.6-23.2,0l-4.3,0.9c-4.4,0.9-8.7,2.4-12.8,4.4
		l-9.1,4.4c-1.7,0.8-3.7-0.5-3.5-2.4l0.9-9.7c0.1-1.7,1.2-3.1,2.7-3.8l4.8-2.1c21-9.3,44.9-9.3,65.9,0l4.8,2.1
		C114.3,94,115.4,95.4,115.5,97.1z"/>
	<g>
		<g>
			<path fill="none" stroke="#8EC640" stroke-width="0.5" stroke-linecap="round" stroke-linejoin="round" d="M42.1,88.4
				c0.2-0.1,0.3-0.1,0.5-0.2"/>
			
				<path fill="none" stroke="#8EC640" stroke-width="0.5" stroke-linecap="round" stroke-linejoin="round" stroke-dasharray="0.9978,0.9978" d="
				M43.5,87.8c20.3-8.6,43.3-8.5,63.6,0.2"/>
			<path fill="none" stroke="#8EC640" stroke-width="0.5" stroke-linecap="round" stroke-linejoin="round" d="M107.5,88.2
				c0.2,0.1,0.3,0.1,0.5,0.2"/>
		</g>
	</g>
	
		<path fill="none" stroke="#8EC640" stroke-width="0.5" stroke-linecap="round" stroke-linejoin="round" stroke-miterlimit="10" stroke-dasharray="1,1" d="
		M110.6,94.5l0.7,5.2c0.1,1.7-1.6,2.9-3.1,2.1l-8-3.9c-3.6-1.7-7.4-3-11.2-3.9l-3.8-0.8c-6.7-1.4-13.7-1.4-20.4,0l-3.8,0.8
		c-3.9,0.8-7.7,2.1-11.2,3.9l-8,3.9c-1.5,0.7-3.2-0.5-3.1-2.1l0.7-5.2"/>
	<path fill="none" stroke="#8EC640" stroke-width="0.5" stroke-linecap="round" stroke-linejoin="round" stroke-miterlimit="10" d="
		M116.4,104.6c0.2,1.9-1.8,3.3-3.5,2.4l-9.1-4.4c-4.1-2-8.4-3.5-12.8-4.4l-4.3-0.9c-7.7-1.6-15.6-1.6-23.2,0l-4.3,0.9
		c-4.4,0.9-8.7,2.4-12.8,4.4l-9.1,4.4c-1.7,0.8-3.7-0.5-3.5-2.4"/>
	<path fill="none" stroke="#8EC640" stroke-width="0.5" stroke-linecap="round" stroke-linejoin="round" stroke-miterlimit="10" d="
		M39.9,88V69.5c0,0-2.1-14.5,15.7-24.9"/>
	<path fill="none" stroke="#8EC640" stroke-width="0.5" stroke-linecap="round" stroke-linejoin="round" stroke-miterlimit="10" d="
		M110.2,88V69.5c0,0,2.1-14.5-15.7-24.9"/>
	
		<circle fill="none" stroke="#8EC640" stroke-width="0.5" stroke-linecap="round" stroke-linejoin="round" stroke-miterlimit="10" cx="57.1" cy="47.4" r="1.1"/>
	
		<circle fill="none" stroke="#8EC640" stroke-width="0.5" stroke-linecap="round" stroke-linejoin="round" stroke-miterlimit="10" cx="91.1" cy="47.4" r="1.1"/>
	
		<line fill="none" stroke="#8EC640" stroke-width="0.5" stroke-linecap="round" stroke-linejoin="round" stroke-miterlimit="10" x1="75" y1="46.7" x2="75" y2="43"/>
</g>
</svg>
