<?xml version="1.0" encoding="utf-8"?>
<!-- Generator: Adobe Illustrator 18.0.0, SVG Export Plug-In . SVG Version: 6.00 Build 0)  -->
<!DOCTYPE svg PUBLIC "-//W3C//DTD SVG 1.1//EN" "http://www.w3.org/Graphics/SVG/1.1/DTD/svg11.dtd">
<svg version="1.1" id="Layer_1" xmlns="http://www.w3.org/2000/svg" xmlns:xlink="http://www.w3.org/1999/xlink" x="0px" y="0px"
	 viewBox="0 0 250 250" enable-background="new 0 0 250 250" xml:space="preserve">
<circle fill="#F1F2F2" cx="125" cy="125" r="125"/>
<g>
	<path fill="#D7DF23" d="M156.4,187.8L156.4,187.8c-6.9,0-12.6-5.6-12.6-12.6V74.7c0-6.9,5.6-12.6,12.6-12.6h0
		c6.9,0,12.6,5.6,12.6,12.6v100.5C169,182.2,163.3,187.8,156.4,187.8z"/>
	<path fill="#8DC63F" d="M156.4,125l-12.6-12.6h-37.7V74.7c0-6.9-5.6-12.6-12.6-12.6h0c-6.9,0-12.6,5.6-12.6,12.6v100.5
		c0,6.9,5.6,12.6,12.6,12.6h0c6.9,0,12.6-5.6,12.6-12.6v-37.7h37.7L156.4,125z"/>
</g>
</svg>
